
<svg xmlns="http://www.w3.org/2000/svg" xmlns:xlink="http://www.w3.org/1999/xlink" viewBox="0 0 430 430" width="430" height="430" preserveAspectRatio="xMidYMid meet" style="width: 100%; height: 100%; transform: translate3d(0px, 0px, 0px); content-visibility: visible;"><defs><clipPath id="__lottie_element_59"><rect width="430" height="430" x="0" y="0"/></clipPath><clipPath id="__lottie_element_61"><path d="M0,0 L430,0 L430,430 L0,430z"/></clipPath><filter id="__lottie_element_67" x="-100%" y="-100%" width="300%" height="300%"><feGaussianBlur result="filter_result_0" stdDeviation="52.5 52.5" edgeMode="wrap"/></filter><g id="__lottie_element_68"><g clip-path="url(#__lottie_element_69)" transform="matrix(1,0,0,1,0,0)" opacity="1" style="display: block;"><g mask="url(#__lottie_element_75_1)" style="display: block;"><g transform="matrix(1,0,0,1,215,281.71600341796875)" opacity="1"><g opacity="1" transform="matrix(1,0,0,1,-54.84215545654297,0)"><path fill="rgb(255,0,0)" fill-opacity="1" d=" M-165.99000549316406,142.71600341796875 C-164.52099609375,142.71600341796875 -134.39999389648438,-6.7230000495910645 -133.11199951171875,-6.609000205993652 C-114.90599822998047,-4.995999813079834 -109.15899658203125,7.216000080108643 -88.39099884033203,7.216000080108643 C-66.15299987792969,7.216000080108643 -66.15299987792969,-6.783999919891357 -43.91600036621094,-6.783999919891357 C-21.67799949645996,-6.783999919891357 -21.67799949645996,7.216000080108643 0.5609999895095825,7.216000080108643 C22.798999786376953,7.216000080108643 22.79800033569336,-6.783999919891357 45.0359992980957,-6.783999919891357 C67.2770004272461,-6.783999919891357 67.2770004272461,7.216000080108643 89.51799774169922,7.216000080108643 C111.75900268554688,7.216000080108643 111.75900268554688,-6.783999919891357 134,-6.783999919891357 C156.23699951171875,-6.783999919891357 156.23800659179688,7.216000080108643 178.47500610351562,7.216000080108643 C200.71200561523438,7.216000080108643 200.71200561523438,-6.783999919891357 222.94900512695312,-6.783999919891357 C245.18800354003906,-6.783999919891357 245.18800354003906,7.216000080108643 267.4259948730469,7.216000080108643 C289.66400146484375,7.216000080108643 289.66400146484375,-6.783999919891357 311.9020080566406,-6.783999919891357 C334.14300537109375,-6.783999919891357 334.14300537109375,7.216000080108643 356.3840026855469,7.216000080108643 C377.2349853515625,7.216000080108643 382.9129943847656,-5.0879998207092285 401.32000732421875,-6.625999927520752 C402.5469970703125,-6.729000091552734 396.3500061035156,138.96600341796875 397.739990234375,138.96600341796875"/></g></g></g><g transform="matrix(1,0,0,1,-35,-35)" opacity="1" style="display: block;"><g opacity="1" transform="matrix(1,0,0,1,193.2899932861328,146.58599853515625)"><path stroke-linecap="round" stroke-linejoin="round" fill-opacity="0" class="primary" stroke="rgb(18,19,49)" stroke-opacity="1" stroke-width="12" d=" M3.3369998931884766,223.5030059814453 C3.3369998931884766,223.5030059814453 -36.69300079345703,223.5030059814453 -36.69300079345703,223.5030059814453 C-36.69300079345703,223.5030059814453 -36.69300079345703,36.696998596191406 -36.69300079345703,36.696998596191406 C-36.69300079345703,36.696998596191406 3.3369998931884766,36.696998596191406 3.3369998931884766,36.696998596191406 C3.3369998931884766,36.696998596191406 3.3369998931884766,223.5030059814453 3.3369998931884766,223.5030059814453z M150.11300659179688,223.5030059814453 C150.11300659179688,223.5030059814453 110.08300018310547,223.5030059814453 110.08300018310547,223.5030059814453 C110.08300018310547,223.5030059814453 110.08300018310547,36.696998596191406 110.08300018310547,36.696998596191406 C110.08300018310547,36.696998596191406 150.11300659179688,36.696998596191406 150.11300659179688,36.696998596191406 C150.11300659179688,36.696998596191406 150.11300659179688,223.5030059814453 150.11300659179688,223.5030059814453z M110.08000183105469,103.41500091552734 C110.08000183105469,103.41500091552734 3.3399999141693115,103.41500091552734 3.3399999141693115,103.41500091552734 M150.11000061035156,103.41500091552734 C150.11000061035156,103.41500091552734 190.13999938964844,103.41500091552734 190.13999938964844,103.41500091552734 C190.13999938964844,103.41500091552734 190.13999938964844,223.53500366210938 190.13999938964844,223.53500366210938 C190.13999938964844,245.625 172.22999572753906,263.5350036621094 150.13999938964844,263.5350036621094 C150.13999938964844,263.5350036621094 -36.720001220703125,263.5350036621094 -36.720001220703125,263.5350036621094 C-58.810001373291016,263.5350036621094 -76.72000122070312,245.625 -76.72000122070312,223.53500366210938 C-76.72000122070312,223.53500366210938 -76.72000122070312,103.41500091552734 -76.72000122070312,103.41500091552734 C-76.72000122070312,103.41500091552734 -36.689998626708984,103.41500091552734 -36.689998626708984,103.41500091552734 M96.73999786376953,-36.69499969482422 C96.73999786376953,-36.69499969482422 130.10000610351562,-36.69499969482422 130.10000610351562,-36.69499969482422 C130.10000610351562,-36.69499969482422 130.10000610351562,36.69499969482422 130.10000610351562,36.69499969482422 M-16.68000030517578,36.69499969482422 C-16.68000030517578,36.69499969482422 -16.68000030517578,-36.69499969482422 -16.68000030517578,-36.69499969482422 C-16.68000030517578,-36.69499969482422 16.68000030517578,-36.69499969482422 16.68000030517578,-36.69499969482422"/></g></g><g transform="matrix(0.8727250099182129,0.48821207880973816,-0.48821207880973816,0.8727250099182129,34.19806671142578,-67.30178833007812)" opacity="1" style="display: block;"><g opacity="1" transform="matrix(1,0,0,1,0,0)"><g opacity="1" transform="matrix(1,0,0,1,96.552001953125,116.56700134277344)"><path stroke-linecap="round" stroke-linejoin="round" fill-opacity="0" class="secondary" stroke="rgb(8,168,138)" stroke-opacity="1" stroke-width="12" d=" M0,-20.014999389648438 C0,-20.014999389648438 0,20.014999389648438 0,20.014999389648438"/></g><g opacity="1" transform="matrix(1,0,0,1,96.552001953125,116.56700134277344)"><path stroke-linecap="round" stroke-linejoin="round" fill-opacity="0" class="secondary" stroke="rgb(8,168,138)" stroke-opacity="1" stroke-width="12" d=" M20.014999389648438,0 C20.014999389648438,0 -20.014999389648438,0 -20.014999389648438,0"/></g></g></g><g transform="matrix(0.9482628703117371,0.3174862563610077,-0.3174862563610077,0.9482628703117371,22.1912841796875,-152.82180786132812)" opacity="1" style="display: block;"><g opacity="1" transform="matrix(1,0,0,1,390.10400390625,116.56700134277344)"><path stroke-linecap="round" stroke-linejoin="round" fill-opacity="0" class="secondary" stroke="rgb(8,168,138)" stroke-opacity="1" stroke-width="12" d=" M20.014999389648438,0 C20.014999389648438,0 -20.014999389648438,0 -20.014999389648438,0"/></g></g><g transform="matrix(0,1,-1,0,139.14547729492188,149.218994140625)" opacity="1" style="display: block;"><g opacity="1" transform="matrix(1,0,0,1,0,0)"><path stroke-linecap="round" stroke-linejoin="round" fill-opacity="0" class="primary" stroke="rgb(18,19,49)" stroke-opacity="1" stroke-width="12" d="M0 0"/></g></g><g transform="matrix(0,1,-1,0,139.14547729492188,149.218994140625)" opacity="1" style="display: block;"><g opacity="1" transform="matrix(1,0,0,1,0,0)"><path stroke-linecap="round" stroke-linejoin="round" fill-opacity="0" class="secondary" stroke="rgb(8,168,138)" stroke-opacity="1" stroke-width="12" d=" M-83.18800354003906,-67.06199645996094 C-83.18800354003906,-67.06199645996094 -73.25,-77 -73.25,-77 C-73.25,-77 -63.23400115966797,-66.98400115966797 -63.23400115966797,-66.98400115966797"/></g></g><g transform="matrix(0.0016057448228821158,0.9999986886978149,-0.9999986886978149,0.0016057448228821158,83.90348815917969,149.33450317382812)" opacity="1" style="display: block;"><g opacity="1" transform="matrix(1,0,0,1,0,0)"><path stroke-linecap="round" stroke-linejoin="round" fill-opacity="0" class="primary" stroke="rgb(18,19,49)" stroke-opacity="1" stroke-width="12" d=" M-69.33200073242188,-73.08200073242188 C-66.52300262451172,-70.27300262451172 -63.23400115966797,-66.98400115966797 -63.23400115966797,-66.98400115966797 M-83.18800354003906,-67.06199645996094 C-83.18800354003906,-67.06199645996094 -73.25,-77 -73.25,-77 C-73.25,-77 -71.42400360107422,-75.17400360107422 -69.33200073242188,-73.08200073242188"/></g></g><g transform="matrix(0.0016057448228821158,0.9999986886978149,-0.9999986886978149,0.0016057448228821158,83.90348815917969,149.33450317382812)" opacity="1" style="display: block;"><g opacity="1" transform="matrix(1,0,0,1,0,0)"><path stroke-linecap="round" stroke-linejoin="round" fill-opacity="0" class="secondary" stroke="rgb(8,168,138)" stroke-opacity="1" stroke-width="12" d="M0 0"/></g></g><g transform="matrix(1,0,0,1,215,178.374755859375)" opacity="1" style="display: block;"><g opacity="1" transform="matrix(1,0,0,1,0,0)"><path stroke-linecap="round" stroke-linejoin="round" fill-opacity="0" class="primary" stroke="rgb(18,19,49)" stroke-opacity="1" stroke-width="12" d=" M-69.33200073242188,-73.08200073242188 C-66.52300262451172,-70.27300262451172 -63.23400115966797,-66.98400115966797 -63.23400115966797,-66.98400115966797 M-83.18800354003906,-67.06199645996094 C-83.18800354003906,-67.06199645996094 -73.25,-77 -73.25,-77 C-73.25,-77 -71.42400360107422,-75.17400360107422 -69.33200073242188,-73.08200073242188"/></g></g><g transform="matrix(1,0,0,1,215,178.374755859375)" opacity="1" style="display: block;"><g opacity="1" transform="matrix(1,0,0,1,0,0)"><path stroke-linecap="round" stroke-linejoin="round" fill-opacity="0" class="secondary" stroke="rgb(8,168,138)" stroke-opacity="1" stroke-width="12" d="M0 0"/></g></g><g transform="matrix(-1,0,0,-1,214.5780029296875,82.01599884033203)" opacity="1" style="display: none;"><g opacity="1" transform="matrix(1,0,0,1,0,0)"><path stroke-linecap="round" stroke-linejoin="round" fill-opacity="0" class="primary" stroke="rgb(18,19,49)" stroke-opacity="1" stroke-width="12" d="M0 0"/></g></g><g transform="matrix(-1,0,0,-1,214.5780029296875,82.01599884033203)" opacity="1" style="display: none;"><g opacity="1" transform="matrix(1,0,0,1,0,0)"><path stroke-linecap="round" stroke-linejoin="round" fill-opacity="0" class="secondary" stroke="rgb(8,168,138)" stroke-opacity="1" stroke-width="12" d="M0 0"/></g></g><g transform="matrix(-1,0,0,-1,214.5780029296875,82.01599884033203)" opacity="1" style="display: none;"><g opacity="1" transform="matrix(1,0,0,1,0,0)"><path stroke-linecap="round" stroke-linejoin="round" fill-opacity="0" class="primary" stroke="rgb(18,19,49)" stroke-opacity="1" stroke-width="12" d="M0 0"/></g></g><g transform="matrix(-1,0,0,-1,214.5780029296875,82.01599884033203)" opacity="1" style="display: none;"><g opacity="1" transform="matrix(1,0,0,1,0,0)"><path stroke-linecap="round" stroke-linejoin="round" fill-opacity="0" class="secondary" stroke="rgb(8,168,138)" stroke-opacity="1" stroke-width="12" d="M0 0"/></g></g><g transform="matrix(-1,0,0,-1,214.5780029296875,82.01599884033203)" opacity="1" style="display: none;"><g opacity="1" transform="matrix(1,0,0,1,0,0)"><path stroke-linecap="round" stroke-linejoin="round" fill-opacity="0" class="primary" stroke="rgb(18,19,49)" stroke-opacity="1" stroke-width="12" d="M0 0"/></g></g><g transform="matrix(-1,0,0,-1,214.5780029296875,82.01599884033203)" opacity="1" style="display: none;"><g opacity="1" transform="matrix(1,0,0,1,0,0)"><path stroke-linecap="round" stroke-linejoin="round" fill-opacity="0" class="secondary" stroke="rgb(8,168,138)" stroke-opacity="1" stroke-width="12" d="M0 0"/></g></g><g transform="matrix(-1,0,0,-1,214.5780029296875,82.01599884033203)" opacity="1" style="display: none;"><g opacity="1" transform="matrix(1,0,0,1,0,0)"><path stroke-linecap="round" stroke-linejoin="round" fill-opacity="0" class="primary" stroke="rgb(18,19,49)" stroke-opacity="1" stroke-width="12" d="M0 0"/></g></g><g transform="matrix(-1,0,0,-1,214.5780029296875,82.01599884033203)" opacity="1" style="display: none;"><g opacity="1" transform="matrix(1,0,0,1,0,0)"><path stroke-linecap="round" stroke-linejoin="round" fill-opacity="0" class="secondary" stroke="rgb(8,168,138)" stroke-opacity="1" stroke-width="12" d="M0 0"/></g></g><g transform="matrix(-1,0,0,-1,214.5780029296875,82.01599884033203)" opacity="1" style="display: none;"><g opacity="1" transform="matrix(1,0,0,1,0,0)"><path stroke-linecap="round" stroke-linejoin="round" fill-opacity="0" class="primary" stroke="rgb(18,19,49)" stroke-opacity="1" stroke-width="12" d="M0 0"/></g></g><g transform="matrix(-1,0,0,-1,214.5780029296875,82.01599884033203)" opacity="1" style="display: none;"><g opacity="1" transform="matrix(1,0,0,1,0,0)"><path stroke-linecap="round" stroke-linejoin="round" fill-opacity="0" class="secondary" stroke="rgb(8,168,138)" stroke-opacity="1" stroke-width="12" d="M0 0"/></g></g><g transform="matrix(-1,0,0,-1,214.5780029296875,82.01599884033203)" opacity="1" style="display: none;"><g opacity="1" transform="matrix(1,0,0,1,0,0)"><path stroke-linecap="round" stroke-linejoin="round" fill-opacity="0" class="primary" stroke="rgb(18,19,49)" stroke-opacity="1" stroke-width="12" d="M0 0"/></g></g><g transform="matrix(-1,0,0,-1,214.5780029296875,82.01599884033203)" opacity="1" style="display: none;"><g opacity="1" transform="matrix(1,0,0,1,0,0)"><path stroke-linecap="round" stroke-linejoin="round" fill-opacity="0" class="secondary" stroke="rgb(8,168,138)" stroke-opacity="1" stroke-width="12" d="M0 0"/></g></g><g transform="matrix(-1,0,0,-1,214.5780029296875,82.01599884033203)" opacity="1" style="display: none;"><g opacity="1" transform="matrix(1,0,0,1,0,0)"><path stroke-linecap="round" stroke-linejoin="round" fill-opacity="0" class="primary" stroke="rgb(18,19,49)" stroke-opacity="1" stroke-width="12" d="M0 0"/></g></g><g transform="matrix(-1,0,0,-1,214.5780029296875,82.01599884033203)" opacity="1" style="display: none;"><g opacity="1" transform="matrix(1,0,0,1,0,0)"><path stroke-linecap="round" stroke-linejoin="round" fill-opacity="0" class="secondary" stroke="rgb(8,168,138)" stroke-opacity="1" stroke-width="12" d="M0 0"/></g></g><g transform="matrix(-1,0,0,-1,214.5780029296875,82.01599884033203)" opacity="1" style="display: none;"><g opacity="1" transform="matrix(1,0,0,1,0,0)"><path stroke-linecap="round" stroke-linejoin="round" fill-opacity="0" class="primary" stroke="rgb(18,19,49)" stroke-opacity="1" stroke-width="12" d="M0 0"/></g></g><g transform="matrix(-1,0,0,-1,214.5780029296875,82.01599884033203)" opacity="1" style="display: none;"><g opacity="1" transform="matrix(1,0,0,1,0,0)"><path stroke-linecap="round" stroke-linejoin="round" fill-opacity="0" class="secondary" stroke="rgb(8,168,138)" stroke-opacity="1" stroke-width="12" d="M0 0"/></g></g><g transform="matrix(-1,0,0,-1,214.5780029296875,82.01599884033203)" opacity="1" style="display: none;"><g opacity="1" transform="matrix(1,0,0,1,0,0)"><path stroke-linecap="round" stroke-linejoin="round" fill-opacity="0" class="primary" stroke="rgb(18,19,49)" stroke-opacity="1" stroke-width="12" d="M0 0"/></g></g><g transform="matrix(-1,0,0,-1,214.5780029296875,82.01599884033203)" opacity="1" style="display: none;"><g opacity="1" transform="matrix(1,0,0,1,0,0)"><path stroke-linecap="round" stroke-linejoin="round" fill-opacity="0" class="secondary" stroke="rgb(8,168,138)" stroke-opacity="1" stroke-width="12" d="M0 0"/></g></g><g transform="matrix(-1,0,0,-1,214.5780029296875,82.01599884033203)" opacity="1" style="display: none;"><g opacity="1" transform="matrix(1,0,0,1,0,0)"><path stroke-linecap="round" stroke-linejoin="round" fill-opacity="0" class="primary" stroke="rgb(18,19,49)" stroke-opacity="1" stroke-width="12" d="M0 0"/></g></g><g transform="matrix(-1,0,0,-1,214.5780029296875,82.01599884033203)" opacity="1" style="display: none;"><g opacity="1" transform="matrix(1,0,0,1,0,0)"><path stroke-linecap="round" stroke-linejoin="round" fill-opacity="0" class="secondary" stroke="rgb(8,168,138)" stroke-opacity="1" stroke-width="12" d="M0 0"/></g></g><g transform="matrix(1,0,0,1,-35,-35)" opacity="1" style="display: block;"><g opacity="1" transform="matrix(1,0,0,1,250,109.89600372314453)"><path stroke-linecap="round" stroke-linejoin="round" fill-opacity="0" class="secondary" stroke="rgb(8,168,138)" stroke-opacity="1" stroke-width="12" d=" M40.029998779296875,28.391143798828125 C40.029998779296875,28.391143798828125 -40.029998779296875,28.391143798828125 -40.029998779296875,28.391143798828125 C-40.029998779296875,28.391143798828125 -40.029998779296875,-28.391143798828125 -40.029998779296875,-28.391143798828125 C-40.029998779296875,-28.391143798828125 40.029998779296875,-28.391143798828125 40.029998779296875,-28.391143798828125 C40.029998779296875,-28.391143798828125 40.029998779296875,28.391143798828125 40.029998779296875,28.391143798828125z"/></g></g></g></g><clipPath id="__lottie_element_69"><path d="M0,0 L430,0 L430,430 L0,430z"/></clipPath><mask id="__lottie_element_68_1" mask-type="alpha"><use xmlns:ns1="http://www.w3.org/1999/xlink" ns1:href="#__lottie_element_68"/></mask><g id="__lottie_element_75"><g clip-path="url(#__lottie_element_76)" transform="matrix(1,0,0,1,0,0)" opacity="1" style="display: block;"><g mask="url(#__lottie_element_94_2)" style="display: block;"><g transform="matrix(1,0,0,1,-35,-35)" opacity="1"><g opacity="1" transform="matrix(1,0,0,1,193.2899932861328,146.58599853515625)"><path fill="rgb(255,0,0)" fill-opacity="1" d=" M150.11000061035156,103.41500091552734 C150.11000061035156,103.41500091552734 190.13999938964844,103.41500091552734 190.13999938964844,103.41500091552734 C190.13999938964844,103.41500091552734 190.13999938964844,223.53500366210938 190.13999938964844,223.53500366210938 C190.13999938964844,245.625 172.22999572753906,263.5350036621094 150.13999938964844,263.5350036621094 C150.13999938964844,263.5350036621094 -36.720001220703125,263.5350036621094 -36.720001220703125,263.5350036621094 C-58.810001373291016,263.5350036621094 -76.72000122070312,245.625 -76.72000122070312,223.53500366210938 C-76.72000122070312,223.53500366210938 -76.72000122070312,103.41500091552734 -76.72000122070312,103.41500091552734 C-76.72000122070312,103.41500091552734 -36.689998626708984,103.41500091552734 -36.689998626708984,103.41500091552734"/></g></g></g></g></g><clipPath id="__lottie_element_76"><path d="M0,0 L430,0 L430,430 L0,430z"/></clipPath><mask id="__lottie_element_75_1" mask-type="alpha"><use xmlns:ns2="http://www.w3.org/1999/xlink" ns2:href="#__lottie_element_75"/></mask><g id="__lottie_element_94"><g transform="matrix(1,0,0,1,-35,-35)" opacity="1" style="display: block;"><g opacity="1" transform="matrix(1,0,0,1,193.2899932861328,146.58599853515625)"><path fill="rgb(255,0,0)" fill-opacity="1" d=" M3.3369998931884766,223.5030059814453 C3.3369998931884766,223.5030059814453 -36.69300079345703,223.5030059814453 -36.69300079345703,223.5030059814453 C-36.69300079345703,223.5030059814453 -36.69300079345703,36.696998596191406 -36.69300079345703,36.696998596191406 C-36.69300079345703,36.696998596191406 3.3369998931884766,36.696998596191406 3.3369998931884766,36.696998596191406 C3.3369998931884766,36.696998596191406 3.3369998931884766,223.5030059814453 3.3369998931884766,223.5030059814453z M150.11300659179688,223.5030059814453 C150.11300659179688,223.5030059814453 110.08300018310547,223.5030059814453 110.08300018310547,223.5030059814453 C110.08300018310547,223.5030059814453 110.08300018310547,36.696998596191406 110.08300018310547,36.696998596191406 C110.08300018310547,36.696998596191406 150.11300659179688,36.696998596191406 150.11300659179688,36.696998596191406 C150.11300659179688,36.696998596191406 150.11300659179688,223.5030059814453 150.11300659179688,223.5030059814453z M110.08000183105469,103.41500091552734 C110.08000183105469,103.41500091552734 3.3399999141693115,103.41500091552734 3.3399999141693115,103.41500091552734"/></g></g></g><filter id="__lottie_element_97" filterUnits="objectBoundingBox" x="0%" y="0%" width="100%" height="100%"><feComponentTransfer in="SourceGraphic"><feFuncA type="table" tableValues="1.0 0.0"/></feComponentTransfer></filter><mask id="__lottie_element_94_2" mask-type="alpha"><g filter="url(#__lottie_element_97)"><rect width="430" height="430" x="0" y="0" fill="#ffffff" opacity="0"/><use xmlns:ns3="http://www.w3.org/1999/xlink" ns3:href="#__lottie_element_94"/></g></mask></defs><g clip-path="url(#__lottie_element_59)"><g clip-path="url(#__lottie_element_61)" transform="matrix(1,0,0,1,0,0)" opacity="1" style="display: block;"><g mask="url(#__lottie_element_68_1)" style="display: block;"><g filter="url(#__lottie_element_67)" transform="matrix(1.1204546689987183,-2.1224000453948975,2.1224000453948975,1.1204546689987183,271.9410095214844,220.4600067138672)" opacity="1"><g class="design" opacity="1" transform="matrix(1,0,0,1,0,0)"><path class="primary" fill="rgb(75,225,236)" fill-opacity="1" d=" M0,-250 C137.97500610351562,-250 250,-137.97500610351562 250,0 C250,137.97500610351562 137.97500610351562,250 0,250 C-137.97500610351562,250 -250,137.97500610351562 -250,0 C-250,-137.97500610351562 -137.97500610351562,-250 0,-250z"/></g><g class="design" opacity="1" transform="matrix(1,0,0,1,113.24199676513672,-118.88400268554688)"><path class="secondary" fill="rgb(203,94,238)" fill-opacity="1" d=" M0,-176.5 C97.47799682617188,-176.5 176.5,-97.47799682617188 176.5,0 C176.5,97.47799682617188 97.47799682617188,176.5 0,176.5 C-43.948001861572266,176.5 -74.39600372314453,142.4429931640625 -105.29000091552734,115.86900329589844 C-142.92100524902344,83.5 -176.5,53.53099822998047 -176.5,0 C-176.5,-97.47799682617188 -97.47799682617188,-176.5 0,-176.5z"/></g></g></g></g></g></svg>